<?xml version="1.0" encoding="utf-8"?>
<!DOCTYPE svg PUBLIC "-//W3C//DTD SVG 1.1//EN" "http://www.w3.org/Graphics/SVG/1.1/DTD/svg11.dtd">
<svg version="1.1" id="Layer_1" xmlns="http://www.w3.org/2000/svg" xmlns:xlink="http://www.w3.org/1999/xlink" x="0px" y="0px"
	 width="595.3px" height="363.9px" viewBox="0 0 595.3 363.9" enable-background="new 0 0 595.3 363.9" xml:space="preserve">
<circle fill="#FFFFFF" stroke="#000000" stroke-miterlimit="10" cx="93.2" cy="87.5" r="57.4"/>
<polygon fill="#FFFFFF" stroke="#000000" stroke-miterlimit="10" points="35.7,316.6 93.2,192.3 158.7,316.6 "/>
<path fill="#FFFFFF" stroke="#000000" stroke-miterlimit="10" d="M260.1,316.6c0,0,24.3-54.1,10.8-62.2
	c-13.5-8.1-44.6,20.3-66.2-13.5s2.7-51.4,10.8-58.1s83.3-43.2,82.2-67.6c-1.1-24.3,35.4,59.5,73.2,50s55.4,40.5,52.7,54.1
	c-2.7,13.5-73-2.7-74.3,35.1s8.1,59.5,18.9,62.2C379,319.3,260.1,316.6,260.1,316.6z"/>

</svg>
