<?xml version="1.0" encoding="utf-8"?>
<!-- Generator: Adobe Illustrator 17.0.0, SVG Export Plug-In . SVG Version: 6.00 Build 0)  -->
<!DOCTYPE svg PUBLIC "-//W3C//DTD SVG 1.1//EN" "http://www.w3.org/Graphics/SVG/1.1/DTD/svg11.dtd">
<svg version="1.1" id="Layer_1" xmlns="http://www.w3.org/2000/svg" xmlns:xlink="http://www.w3.org/1999/xlink" x="0px" y="0px"
	 width="595.28px" height="841.89px" viewBox="0 0 595.28 841.89" enable-background="new 0 0 595.28 841.89" xml:space="preserve">
<g>
	<path d="M83.451,59.545l-8.332-30.902l-8.438,30.902c-0.656,2.344-1.178,4.025-1.564,5.045s-1.061,1.934-2.021,2.742
		c-0.961,0.809-2.238,1.213-3.832,1.213c-1.289,0-2.35-0.241-3.182-0.721c-0.832-0.48-1.506-1.16-2.021-2.039
		c-0.516-0.879-0.938-1.921-1.266-3.129c-0.329-1.207-0.621-2.326-0.879-3.357L43.337,24.6c-0.516-2.016-0.773-3.551-0.773-4.605
		c0-1.336,0.469-2.461,1.406-3.375c0.937-0.914,2.097-1.371,3.48-1.371c1.898,0,3.176,0.61,3.832,1.828
		c0.656,1.219,1.23,2.988,1.723,5.309l6.75,30.094l7.559-28.16c0.562-2.156,1.066-3.797,1.512-4.922
		c0.445-1.125,1.172-2.097,2.18-2.918c1.007-0.82,2.378-1.23,4.113-1.23c1.758,0,3.123,0.428,4.096,1.283
		c0.972,0.856,1.646,1.788,2.021,2.795c0.375,1.008,0.879,2.672,1.512,4.992l7.629,28.16l6.75-30.094
		c0.328-1.57,0.638-2.8,0.932-3.691c0.293-0.891,0.796-1.688,1.512-2.391c0.715-0.703,1.752-1.055,3.111-1.055
		c1.359,0,2.514,0.452,3.463,1.354c0.949,0.902,1.424,2.034,1.424,3.393c0,0.961-0.258,2.496-0.773,4.605l-8.578,34.699
		c-0.586,2.344-1.072,4.061-1.459,5.15s-1.043,2.045-1.969,2.865c-0.926,0.82-2.232,1.23-3.92,1.23
		c-1.594,0-2.871-0.399-3.832-1.195c-0.961-0.796-1.629-1.693-2.004-2.689C84.658,63.665,84.13,61.959,83.451,59.545z"/>
	<path d="M147.47,61.831l-2.461-6.469h-20.953l-2.461,6.609c-0.961,2.579-1.781,4.319-2.461,5.221
		c-0.68,0.902-1.793,1.354-3.34,1.354c-1.313,0-2.473-0.48-3.48-1.441c-1.008-0.961-1.512-2.051-1.512-3.27
		c0-0.703,0.117-1.429,0.352-2.18c0.234-0.75,0.621-1.793,1.16-3.129l13.184-33.469c0.375-0.961,0.826-2.115,1.354-3.463
		c0.527-1.348,1.09-2.466,1.688-3.357c0.598-0.891,1.383-1.611,2.355-2.162c0.972-0.55,2.174-0.826,3.604-0.826
		c1.453,0,2.666,0.276,3.639,0.826c0.972,0.551,1.758,1.26,2.355,2.127c0.598,0.867,1.102,1.799,1.512,2.795
		c0.41,0.997,0.932,2.326,1.564,3.99l13.465,33.258c1.055,2.531,1.582,4.372,1.582,5.52c0,1.195-0.498,2.291-1.494,3.287
		c-0.997,0.996-2.197,1.494-3.604,1.494c-0.821,0-1.524-0.146-2.109-0.439c-0.586-0.293-1.078-0.691-1.477-1.195
		c-0.399-0.504-0.826-1.277-1.283-2.32C148.191,63.548,147.798,62.627,147.47,61.831z M126.798,47.522h15.398l-7.77-21.27
		L126.798,47.522z"/>
	<path d="M170.251,22.104l11.672,34.559l11.707-34.805c0.609-1.828,1.066-3.099,1.371-3.814c0.304-0.715,0.809-1.359,1.512-1.934
		c0.703-0.574,1.664-0.861,2.883-0.861c0.891,0,1.717,0.223,2.479,0.668c0.761,0.445,1.359,1.037,1.793,1.775
		c0.434,0.738,0.65,1.482,0.65,2.232c0,0.516-0.07,1.072-0.211,1.67s-0.316,1.184-0.527,1.758c-0.211,0.575-0.422,1.166-0.633,1.775
		l-12.48,33.68c-0.445,1.289-0.891,2.514-1.336,3.674c-0.445,1.16-0.961,2.18-1.547,3.059c-0.586,0.879-1.366,1.6-2.338,2.162
		c-0.973,0.562-2.162,0.844-3.568,0.844s-2.596-0.276-3.568-0.826c-0.973-0.55-1.758-1.277-2.355-2.18
		c-0.598-0.902-1.12-1.928-1.564-3.076c-0.445-1.148-0.891-2.367-1.336-3.656l-12.27-33.398c-0.211-0.609-0.428-1.207-0.65-1.793
		c-0.223-0.585-0.41-1.218-0.562-1.898c-0.153-0.68-0.229-1.253-0.229-1.723c0-1.195,0.48-2.285,1.441-3.27
		c0.961-0.984,2.167-1.477,3.621-1.477c1.781,0,3.041,0.545,3.779,1.635S169.478,19.713,170.251,22.104z"/>
	<path d="M246.119,24.178h-23.52v12.656h21.656c1.594,0,2.783,0.357,3.568,1.072c0.785,0.715,1.178,1.658,1.178,2.83
		c0,1.172-0.387,2.127-1.16,2.865s-1.969,1.107-3.586,1.107h-21.656v14.66h24.328c1.64,0,2.877,0.381,3.709,1.143
		c0.832,0.762,1.248,1.775,1.248,3.041c0,1.219-0.417,2.209-1.248,2.971c-0.832,0.762-2.069,1.143-3.709,1.143h-28.371
		c-2.273,0-3.908-0.504-4.904-1.512c-0.997-1.007-1.494-2.637-1.494-4.887V22.526c0-1.5,0.223-2.725,0.668-3.674
		c0.445-0.949,1.143-1.64,2.092-2.074c0.949-0.434,2.162-0.65,3.639-0.65h27.562c1.664,0,2.9,0.369,3.709,1.107
		s1.213,1.705,1.213,2.9c0,1.219-0.404,2.197-1.213,2.936S247.783,24.178,246.119,24.178z"/>
	<path d="M299.346,52.198c0,3.117-0.804,5.918-2.409,8.402c-1.605,2.484-3.955,4.43-7.049,5.836s-6.762,2.109-11.004,2.109
		c-5.086,0-9.281-0.961-12.586-2.883c-2.344-1.383-4.249-3.229-5.713-5.537c-1.465-2.308-2.197-4.553-2.197-6.732
		c0-1.266,0.439-2.35,1.318-3.252c0.879-0.902,1.998-1.354,3.357-1.354c1.102,0,2.033,0.352,2.795,1.055
		c0.761,0.703,1.412,1.746,1.951,3.129c0.656,1.641,1.365,3.012,2.127,4.113c0.761,1.102,1.833,2.01,3.217,2.725
		c1.383,0.715,3.199,1.072,5.449,1.072c3.094,0,5.607-0.721,7.541-2.162s2.9-3.24,2.9-5.396c0-1.71-0.522-3.099-1.564-4.166
		c-1.043-1.066-2.391-1.881-4.043-2.443s-3.862-1.16-6.627-1.793c-3.704-0.867-6.803-1.881-9.299-3.041s-4.477-2.742-5.941-4.746
		c-1.465-2.004-2.197-4.494-2.197-7.471c0-2.835,0.773-5.355,2.32-7.559c1.547-2.203,3.785-3.896,6.715-5.08
		c2.93-1.183,6.375-1.775,10.336-1.775c3.164,0,5.9,0.393,8.209,1.178c2.308,0.786,4.224,1.828,5.748,3.129
		c1.523,1.301,2.637,2.667,3.34,4.096c0.703,1.43,1.055,2.825,1.055,4.184c0,1.243-0.439,2.361-1.318,3.357
		c-0.879,0.997-1.975,1.494-3.287,1.494c-1.195,0-2.104-0.299-2.725-0.896c-0.621-0.598-1.295-1.576-2.021-2.936
		c-0.938-1.945-2.062-3.463-3.375-4.553c-1.313-1.09-3.422-1.635-6.328-1.635c-2.695,0-4.869,0.592-6.521,1.775
		c-1.652,1.184-2.479,2.607-2.479,4.271c0,1.032,0.281,1.922,0.844,2.672c0.562,0.75,1.336,1.395,2.32,1.934
		c0.984,0.54,1.98,0.961,2.988,1.266c1.007,0.305,2.672,0.75,4.992,1.336c2.906,0.68,5.537,1.43,7.893,2.25
		c2.355,0.821,4.359,1.816,6.012,2.988c1.652,1.172,2.941,2.654,3.867,4.447C298.882,47.399,299.346,49.596,299.346,52.198z"/>
</g>
</svg>
